<svg width="64" height="64" viewBox="0 0 64 64" fill="none" xmlns="http://www.w3.org/2000/svg">
<g clip-path="url(#clip0_2653_2830)">
<rect width="64" height="64" fill="#F5F5F5"/>
<mask id="path-1-inside-1_2653_2830" fill="white">
<path fill-rule="evenodd" clip-rule="evenodd" d="M35.4636 4.3508L43.9489 12.8361L40.3962 16.3888C41.3594 18.405 41.9258 20.5634 42.0955 22.7468L46.9532 24.0485L43.8474 35.6396L38.9924 34.3387C38.3774 35.2324 37.6725 36.083 36.8778 36.8777C36.083 37.6725 35.2324 38.3774 34.3386 38.9925L35.6395 43.8474L24.0484 46.9533L22.7467 42.0954C20.5633 41.9257 18.405 41.3592 16.3889 40.3961L12.8362 43.9488L4.3509 35.4635L7.90357 31.9108C6.94046 29.8947 6.37404 27.7364 6.20434 25.5531L1.3466 24.2515L4.45243 12.6604L9.30714 13.9612C9.92222 13.0673 10.6272 12.2167 11.422 11.4219C12.2167 10.6271 13.0673 9.92221 13.9611 9.30716L12.6603 4.45248L24.2514 1.34666L25.553 6.20423C27.7364 6.37392 29.8947 6.94033 31.9109 7.90347L35.4636 4.3508ZM28.65 28.6499C26.1646 31.1353 22.1351 31.1353 19.6498 28.6499C17.1645 26.1646 17.1645 22.1351 19.6498 19.6498C22.1351 17.1645 26.1646 17.1645 28.65 19.6498C31.1353 22.1351 31.1353 26.1646 28.65 28.6499Z"/>
</mask>
<path fill-rule="evenodd" clip-rule="evenodd" d="M35.4636 4.3508L43.9489 12.8361L40.3962 16.3888C41.3594 18.405 41.9258 20.5634 42.0955 22.7468L46.9532 24.0485L43.8474 35.6396L38.9924 34.3387C38.3774 35.2324 37.6725 36.083 36.8778 36.8777C36.083 37.6725 35.2324 38.3774 34.3386 38.9925L35.6395 43.8474L24.0484 46.9533L22.7467 42.0954C20.5633 41.9257 18.405 41.3592 16.3889 40.3961L12.8362 43.9488L4.3509 35.4635L7.90357 31.9108C6.94046 29.8947 6.37404 27.7364 6.20434 25.5531L1.3466 24.2515L4.45243 12.6604L9.30714 13.9612C9.92222 13.0673 10.6272 12.2167 11.422 11.4219C12.2167 10.6271 13.0673 9.92221 13.9611 9.30716L12.6603 4.45248L24.2514 1.34666L25.553 6.20423C27.7364 6.37392 29.8947 6.94033 31.9109 7.90347L35.4636 4.3508ZM28.65 28.6499C26.1646 31.1353 22.1351 31.1353 19.6498 28.6499C17.1645 26.1646 17.1645 22.1351 19.6498 19.6498C22.1351 17.1645 26.1646 17.1645 28.65 19.6498C31.1353 22.1351 31.1353 26.1646 28.65 28.6499Z" fill="#E7FD7F"/>
<path d="M43.9489 12.8361L45.3631 14.2503L46.7773 12.8361L45.3631 11.4219L43.9489 12.8361ZM35.4636 4.3508L36.8778 2.93659L35.4636 1.52238L34.0494 2.93659L35.4636 4.3508ZM40.3962 16.3888L38.982 14.9745L37.9819 15.9746L38.5916 17.2509L40.3962 16.3888ZM42.0955 22.7468L40.1015 22.9018L40.2111 24.3125L41.5778 24.6787L42.0955 22.7468ZM46.9532 24.0485L48.8851 24.5661L49.4027 22.6342L47.4709 22.1166L46.9532 24.0485ZM43.8474 35.6396L43.3298 37.5714L45.2616 38.0891L45.7792 36.1572L43.8474 35.6396ZM38.9924 34.3387L39.5101 32.4068L38.1456 32.0412L37.3448 33.2049L38.9924 34.3387ZM34.3386 38.9925L33.2049 37.3448L32.0412 38.1456L32.4068 39.5101L34.3386 38.9925ZM35.6395 43.8474L36.1571 45.7793L38.089 45.2617L37.5714 43.3298L35.6395 43.8474ZM24.0484 46.9533L22.1165 47.4709L22.6342 49.4028L24.566 48.8851L24.0484 46.9533ZM22.7467 42.0954L24.6786 41.5777L24.3124 40.211L22.9017 40.1014L22.7467 42.0954ZM16.3889 40.3961L17.2509 38.5915L15.9747 37.9818L14.9746 38.9819L16.3889 40.3961ZM12.8362 43.9488L11.422 45.363L12.8362 46.7772L14.2504 45.363L12.8362 43.9488ZM4.3509 35.4635L2.93669 34.0493L1.52247 35.4635L2.93669 36.8777L4.3509 35.4635ZM7.90357 31.9108L9.31778 33.325L10.3179 32.3249L9.70823 31.0487L7.90357 31.9108ZM6.20434 25.5531L8.19832 25.3981L8.08868 23.9875L6.72198 23.6213L6.20434 25.5531ZM1.3466 24.2515L-0.585251 23.7338L-1.10289 25.6657L0.828961 26.1833L1.3466 24.2515ZM4.45243 12.6604L4.97007 10.7285L3.03822 10.2109L2.52058 12.1427L4.45243 12.6604ZM9.30714 13.9612L8.7895 15.893L10.154 16.2586L10.9548 15.0949L9.30714 13.9612ZM13.9611 9.30716L15.0949 10.9548L16.2586 10.154L15.893 8.78952L13.9611 9.30716ZM12.6603 4.45248L12.1427 2.52063L10.2108 3.03827L10.7285 4.97012L12.6603 4.45248ZM24.2514 1.34666L26.1833 0.829018L25.6656 -1.10283L23.7338 -0.585195L24.2514 1.34666ZM25.553 6.20423L23.6211 6.72187L23.9874 8.08858L25.398 8.19821L25.553 6.20423ZM31.9109 7.90347L31.0488 9.70813L32.325 10.3178L33.3251 9.31769L31.9109 7.90347ZM45.3631 11.4219L36.8778 2.93659L34.0494 5.76502L42.5347 14.2503L45.3631 11.4219ZM41.8104 17.803L45.3631 14.2503L42.5347 11.4219L38.982 14.9745L41.8104 17.803ZM44.0895 22.5919C43.901 20.1674 43.272 17.7688 42.2009 15.5267L38.5916 17.2509C39.4468 19.0411 39.9505 20.9594 40.1015 22.9018L44.0895 22.5919ZM47.4709 22.1166L42.6131 20.815L41.5778 24.6787L46.4356 25.9803L47.4709 22.1166ZM45.7792 36.1572L48.8851 24.5661L45.0214 23.5308L41.9155 35.1219L45.7792 36.1572ZM38.4748 36.2705L43.3298 37.5714L44.365 33.7077L39.5101 32.4068L38.4748 36.2705ZM38.292 38.2919C39.1733 37.4106 39.9562 36.4661 40.64 35.4725L37.3448 33.2049C36.7986 33.9988 36.1717 34.7554 35.4636 35.4635L38.292 38.2919ZM35.4724 40.6401C36.4661 39.9562 37.4107 39.1733 38.292 38.2919L35.4636 35.4635C34.7554 36.1717 33.9988 36.7986 33.2049 37.3448L35.4724 40.6401ZM37.5714 43.3298L36.2705 38.4748L32.4068 39.5101L33.7077 44.3651L37.5714 43.3298ZM24.566 48.8851L36.1571 45.7793L35.1219 41.9156L23.5308 45.0214L24.566 48.8851ZM20.8149 42.613L22.1165 47.4709L25.9803 46.4356L24.6786 41.5777L20.8149 42.613ZM15.5268 42.2008C17.7689 43.2718 20.1674 43.9009 22.5918 44.0893L22.9017 40.1014C20.9593 39.9504 19.0412 39.4467 17.2509 38.5915L15.5268 42.2008ZM14.2504 45.363L17.8031 41.8103L14.9746 38.9819L11.422 42.5346L14.2504 45.363ZM2.93669 36.8777L11.422 45.363L14.2504 42.5346L5.76511 34.0493L2.93669 36.8777ZM6.48936 30.4966L2.93669 34.0493L5.76511 36.8777L9.31778 33.325L6.48936 30.4966ZM4.21035 25.7081C4.39879 28.1324 5.02787 30.5309 6.09891 32.7729L9.70823 31.0487C8.85304 29.2585 8.34929 27.3404 8.19832 25.3981L4.21035 25.7081ZM0.828961 26.1833L5.6867 27.485L6.72198 23.6213L1.86424 22.3196L0.828961 26.1833ZM2.52058 12.1427L-0.585251 23.7338L3.27845 24.7691L6.38428 13.178L2.52058 12.1427ZM9.82478 12.0293L4.97007 10.7285L3.93479 14.5922L8.7895 15.893L9.82478 12.0293ZM10.0078 10.0077C9.12635 10.8891 8.34336 11.8337 7.65953 12.8274L10.9548 15.0949C11.5011 14.301 12.128 13.5443 12.8362 12.8361L10.0078 10.0077ZM12.8274 7.65956C11.8336 8.34336 10.8891 9.12631 10.0078 10.0077L12.8362 12.8361C13.5444 12.1279 14.301 11.5011 15.0949 10.9548L12.8274 7.65956ZM15.893 8.78952L14.5922 3.93485L10.7285 4.97012L12.0293 9.8248L15.893 8.78952ZM13.1779 6.38434L24.7691 3.27851L23.7338 -0.585195L12.1427 2.52063L13.1779 6.38434ZM22.3196 1.86429L23.6211 6.72187L27.4849 5.68659L26.1833 0.829018L22.3196 1.86429ZM32.773 6.09882C30.5309 5.02774 28.1324 4.39866 25.708 4.21024L25.398 8.19821C27.3404 8.34917 29.2586 8.85292 31.0488 9.70813L32.773 6.09882ZM34.0494 2.93659L30.4967 6.48926L33.3251 9.31769L36.8778 5.76502L34.0494 2.93659ZM18.2356 30.0642C21.502 33.3305 26.7978 33.3305 30.0642 30.0642L27.2357 27.2357C25.5315 28.94 22.7683 28.94 21.064 27.2357L18.2356 30.0642ZM18.2356 18.2356C14.9692 21.502 14.9692 26.7978 18.2356 30.0642L21.064 27.2357C19.3598 25.5315 19.3598 22.7683 21.064 21.064L18.2356 18.2356ZM30.0642 18.2356C26.7978 14.9692 21.502 14.9692 18.2356 18.2356L21.064 21.064C22.7683 19.3598 25.5315 19.3598 27.2357 21.064L30.0642 18.2356ZM30.0642 30.0642C33.3305 26.7978 33.3305 21.502 30.0642 18.2356L27.2357 21.064C28.94 22.7683 28.94 25.5315 27.2357 27.2357L30.0642 30.0642Z" fill="#161F59" mask="url(#path-1-inside-1_2653_2830)"/>
<mask id="path-3-inside-2_2653_2830" fill="white">
<path fill-rule="evenodd" clip-rule="evenodd" d="M48.417 33.6432L56.2244 35.3882L55.1703 40.1041C55.778 40.5488 56.3295 41.0585 56.817 41.6207L61.4301 40.1749L63.8226 47.8088L59.2096 49.2545C59.1694 49.6219 59.1085 49.9908 59.026 50.3598C58.9435 50.7289 58.8416 51.0887 58.7216 51.4382L62.2801 54.7103L56.8652 60.5992L53.3066 57.327C52.6262 57.6281 51.9101 57.8545 51.1709 57.9983L50.1169 62.7141L42.3095 60.9691L43.3635 56.2534C42.7557 55.8086 42.2042 55.2989 41.7166 54.7367L37.1037 56.1824L34.7112 48.5486L39.3239 47.1029C39.3641 46.7355 39.425 46.3666 39.5075 45.9974C39.5901 45.6282 39.692 45.2683 39.8121 44.9187L36.2539 41.6468L41.6687 35.7579L45.2273 39.0301C45.9078 38.729 46.6238 38.5026 47.363 38.3589L48.417 33.6432ZM52.9301 48.9974C52.4779 51.0207 50.471 52.2943 48.4477 51.8421C46.4244 51.3899 45.1508 49.3831 45.603 47.3598C46.0552 45.3365 48.062 44.0628 50.0853 44.5151C52.1087 44.9673 53.3823 46.9741 52.9301 48.9974Z"/>
</mask>
<path fill-rule="evenodd" clip-rule="evenodd" d="M48.417 33.6432L56.2244 35.3882L55.1703 40.1041C55.778 40.5488 56.3295 41.0585 56.817 41.6207L61.4301 40.1749L63.8226 47.8088L59.2096 49.2545C59.1694 49.6219 59.1085 49.9908 59.026 50.3598C58.9435 50.7289 58.8416 51.0887 58.7216 51.4382L62.2801 54.7103L56.8652 60.5992L53.3066 57.327C52.6262 57.6281 51.9101 57.8545 51.1709 57.9983L50.1169 62.7141L42.3095 60.9691L43.3635 56.2534C42.7557 55.8086 42.2042 55.2989 41.7166 54.7367L37.1037 56.1824L34.7112 48.5486L39.3239 47.1029C39.3641 46.7355 39.425 46.3666 39.5075 45.9974C39.5901 45.6282 39.692 45.2683 39.8121 44.9187L36.2539 41.6468L41.6687 35.7579L45.2273 39.0301C45.9078 38.729 46.6238 38.5026 47.363 38.3589L48.417 33.6432ZM52.9301 48.9974C52.4779 51.0207 50.471 52.2943 48.4477 51.8421C46.4244 51.3899 45.1508 49.3831 45.603 47.3598C46.0552 45.3365 48.062 44.0628 50.0853 44.5151C52.1087 44.9673 53.3823 46.9741 52.9301 48.9974Z" fill="#8DC3DD"/>
<path d="M56.2244 35.3882L58.1762 35.8244L58.6124 33.8726L56.6606 33.4364L56.2244 35.3882ZM48.417 33.6432L48.8532 31.6914L46.9014 31.2552L46.4651 33.207L48.417 33.6432ZM55.1703 40.1041L53.2185 39.6679L52.933 40.945L53.9891 41.718L55.1703 40.1041ZM56.817 41.6207L55.306 42.931L56.1646 43.9211L57.4151 43.5291L56.817 41.6207ZM61.4301 40.1749L63.3386 39.5768L62.7404 37.6683L60.832 38.2664L61.4301 40.1749ZM63.8226 47.8088L64.4207 49.7172L66.3292 49.1191L65.7311 47.2106L63.8226 47.8088ZM59.2096 49.2545L58.6115 47.346L57.3638 47.7371L57.2215 49.0369L59.2096 49.2545ZM59.026 50.3598L60.9778 50.7961L60.9778 50.7961L59.026 50.3598ZM58.7216 51.4382L56.83 50.7887L56.4053 52.0254L57.3679 52.9104L58.7216 51.4382ZM62.2801 54.7103L63.7523 56.064L65.1061 54.5918L63.6338 53.2381L62.2801 54.7103ZM56.8652 60.5992L55.5115 62.0714L56.9838 63.4251L58.3375 61.9529L56.8652 60.5992ZM53.3066 57.327L54.6603 55.8548L53.6956 54.9678L52.4972 55.4981L53.3066 57.327ZM51.1709 57.9983L50.7891 56.035L49.5045 56.2848L49.219 57.562L51.1709 57.9983ZM50.1169 62.7141L49.6806 64.666L51.6325 65.1022L52.0687 63.1503L50.1169 62.7141ZM42.3095 60.9691L40.3576 60.5329L39.9214 62.4847L41.8732 62.921L42.3095 60.9691ZM43.3635 56.2534L45.3153 56.6896L45.6008 55.4124L44.5447 54.6395L43.3635 56.2534ZM41.7166 54.7367L43.2276 53.4264L42.369 52.4363L41.1185 52.8283L41.7166 54.7367ZM37.1037 56.1824L35.1953 56.7806L35.7934 58.689L37.7019 58.0909L37.1037 56.1824ZM34.7112 48.5486L34.1131 46.6401L32.2046 47.2382L32.8028 49.1467L34.7112 48.5486ZM39.3239 47.1029L39.922 49.0114L41.1698 48.6204L41.312 47.3205L39.3239 47.1029ZM39.5075 45.9974L41.4594 46.4337L41.4594 46.4337L39.5075 45.9974ZM39.8121 44.9187L41.7037 45.5683L42.1284 44.3315L41.1658 43.4464L39.8121 44.9187ZM36.2539 41.6468L34.7816 40.2931L33.4279 41.7653L34.9001 43.1191L36.2539 41.6468ZM41.6687 35.7579L43.0224 34.2857L41.5502 32.932L40.1965 34.4042L41.6687 35.7579ZM45.2273 39.0301L43.8736 40.5023L44.8383 41.3893L46.0366 40.859L45.2273 39.0301ZM47.363 38.3589L47.7447 40.3222L49.0294 40.0724L49.3149 38.7952L47.363 38.3589ZM48.4477 51.8421L48.0115 53.794L48.0115 53.794L48.4477 51.8421ZM52.9301 48.9974L50.9782 48.5612L52.9301 48.9974ZM45.603 47.3598L47.5548 47.796L45.603 47.3598ZM56.6606 33.4364L48.8532 31.6914L47.9807 35.5951L55.7881 37.34L56.6606 33.4364ZM57.1222 40.5403L58.1762 35.8244L54.2725 34.952L53.2185 39.6679L57.1222 40.5403ZM58.328 40.3104C57.7434 39.6362 57.0815 39.0244 56.3516 38.4902L53.9891 41.718C54.4745 42.0733 54.9157 42.4808 55.306 42.931L58.328 40.3104ZM60.832 38.2664L56.2189 39.7122L57.4151 43.5291L62.0282 42.0834L60.832 38.2664ZM65.7311 47.2106L63.3386 39.5768L59.5216 40.773L61.9141 48.4069L65.7311 47.2106ZM59.8077 51.163L64.4207 49.7172L63.2245 45.9003L58.6115 47.346L59.8077 51.163ZM60.9778 50.7961C61.0765 50.3547 61.1495 49.9128 61.1977 49.4721L57.2215 49.0369C57.1893 49.3309 57.1405 49.6268 57.0741 49.9236L60.9778 50.7961ZM60.6132 52.0877C60.7571 51.6684 60.8792 51.2375 60.9778 50.7961L57.0741 49.9236C57.0078 50.2204 56.926 50.5089 56.83 50.7887L60.6132 52.0877ZM63.6338 53.2381L60.0753 49.966L57.3679 52.9104L60.9264 56.1825L63.6338 53.2381ZM58.3375 61.9529L63.7523 56.064L60.8079 53.3566L55.393 59.2455L58.3375 61.9529ZM51.9529 58.7992L55.5115 62.0714L58.219 59.127L54.6603 55.8548L51.9529 58.7992ZM51.5526 59.9615C52.4405 59.7888 53.3 59.517 54.116 59.1559L52.4972 55.4981C51.9524 55.7392 51.3796 55.9202 50.7891 56.035L51.5526 59.9615ZM52.0687 63.1503L53.1227 58.4345L49.219 57.562L48.165 62.2779L52.0687 63.1503ZM41.8732 62.921L49.6806 64.666L50.5531 60.7623L42.7457 59.0173L41.8732 62.921ZM41.4116 55.8172L40.3576 60.5329L44.2613 61.4054L45.3153 56.6896L41.4116 55.8172ZM40.2057 56.0471C40.7903 56.7212 41.4523 57.3331 42.1823 57.8673L44.5447 54.6395C44.0592 54.2842 43.618 53.8766 43.2276 53.4264L40.2057 56.0471ZM37.7019 58.0909L42.3148 56.6452L41.1185 52.8283L36.5056 54.274L37.7019 58.0909ZM32.8028 49.1467L35.1953 56.7806L39.0122 55.5843L36.6197 47.9505L32.8028 49.1467ZM38.7258 45.1945L34.1131 46.6401L35.3094 50.457L39.922 49.0114L38.7258 45.1945ZM37.5557 45.5612C37.457 46.0026 37.384 46.4446 37.3358 46.8854L41.312 47.3205C41.3442 47.0265 41.393 46.7305 41.4594 46.4337L37.5557 45.5612ZM37.9206 44.2691C37.7765 44.6885 37.6544 45.1196 37.5557 45.5612L41.4594 46.4337C41.5257 46.1368 41.6076 45.8481 41.7037 45.5683L37.9206 44.2691ZM34.9001 43.1191L38.4584 46.3909L41.1658 43.4464L37.6076 40.1746L34.9001 43.1191ZM40.1965 34.4042L34.7816 40.2931L37.7261 43.0006L43.141 37.1116L40.1965 34.4042ZM46.5811 37.5579L43.0224 34.2857L40.315 37.2302L43.8736 40.5023L46.5811 37.5579ZM46.9813 36.3957C46.0934 36.5683 45.234 36.8401 44.4181 37.2011L46.0366 40.859C46.5815 40.6179 47.1542 40.437 47.7447 40.3222L46.9813 36.3957ZM46.4651 33.207L45.4112 37.9227L49.3149 38.7952L50.3688 34.0795L46.4651 33.207ZM48.0115 53.794C51.1128 54.4871 54.1888 52.5349 54.8819 49.4336L50.9782 48.5612C50.7669 49.5065 49.8293 50.1016 48.884 49.8903L48.0115 53.794ZM43.6512 46.9235C42.958 50.0248 44.9102 53.1008 48.0115 53.794L48.884 49.8903C47.9386 49.679 47.3436 48.7414 47.5548 47.796L43.6512 46.9235ZM50.5216 42.5632C47.4203 41.8701 44.3443 43.8223 43.6512 46.9235L47.5548 47.796C47.7661 46.8507 48.7038 46.2556 49.6491 46.4669L50.5216 42.5632ZM54.8819 49.4336C55.5751 46.3323 53.6229 43.2564 50.5216 42.5632L49.6491 46.4669C50.5944 46.6782 51.1895 47.6158 50.9782 48.5612L54.8819 49.4336Z" fill="#161F59" mask="url(#path-3-inside-2_2653_2830)"/>
</g>
<defs>
<clipPath id="clip0_2653_2830">
<rect width="64" height="64" fill="white"/>
</clipPath>
</defs>
</svg>
