<svg width="196" height="196" viewBox="0 0 196 196" fill="none" xmlns="http://www.w3.org/2000/svg">
<path d="M76.8162 11L94.0924 20.9798" stroke="#E7FD7F" stroke-width="2" stroke-miterlimit="10"/>
<path d="M120 11L102.73 20.9798" stroke="#E7FD7F" stroke-width="2" stroke-miterlimit="10"/>
<path d="M98.4082 48.419L98.4082 28.4595" stroke="#E7FD7F" stroke-width="2" stroke-miterlimit="10"/>
<path d="M10.8826 119.301L20.8623 102.025" stroke="#E7FD7F" stroke-width="2" stroke-miterlimit="10"/>
<path d="M10.8826 76.1175L20.8623 93.3871" stroke="#E7FD7F" stroke-width="2" stroke-miterlimit="10"/>
<path d="M48.3015 97.7095L28.342 97.7095" stroke="#E7FD7F" stroke-width="2" stroke-miterlimit="10"/>
<path d="M119.184 79L101.908 88.9798" stroke="#9082EC" stroke-width="2" stroke-miterlimit="10"/>
<path d="M76 79L93.2695 88.9798" stroke="#9082EC" stroke-width="2" stroke-miterlimit="10"/>
<path d="M97.5918 116.419L97.5918 96.4595" stroke="#9082EC" stroke-width="2" stroke-miterlimit="10"/>
<path d="M184.709 76.4081L174.73 93.6843" stroke="#E7FD7F" stroke-width="2" stroke-miterlimit="10"/>
<path d="M184.709 119.592L174.73 102.322" stroke="#E7FD7F" stroke-width="2" stroke-miterlimit="10"/>
<path d="M147.291 98L167.25 98" stroke="#E7FD7F" stroke-width="2" stroke-miterlimit="10"/>
<path d="M119.184 185L101.908 175.02" stroke="#E7FD7F" stroke-width="2" stroke-miterlimit="10"/>
<path d="M76 185L93.2695 175.02" stroke="#E7FD7F" stroke-width="2" stroke-miterlimit="10"/>
<path d="M97.5918 147.581L97.5918 167.541" stroke="#E7FD7F" stroke-width="2" stroke-miterlimit="10"/>
</svg>
